<svg width="202" height="41" viewBox="0 0 202 41" fill="none" xmlns="http://www.w3.org/2000/svg">
<path d="M94.26 16.56V19.36C95.7 18.26 97.3 17.74 98.66 17.74C100.04 17.74 100.92 18.26 100.92 19.26C100.92 20.56 99.7 21.1 98.28 21.92C96.28 23.1 93.8 24.38 93.8 27.66V29H104V26.42L97.2 26.44C97.22 25.56 98.6 24.82 100.22 23.86C102 22.8 103.9 21.44 103.9 19.14C103.9 16.36 101.68 15.12 98.94 15.12C97.28 15.12 95.66 15.56 94.26 16.56ZM120.968 29V19.4H118.208V23.76C117.688 23.98 117.148 24.06 116.508 24.06C115.488 24.06 114.788 23.7 114.788 22.56V19.4H112.008V22.82C112.008 25.3 113.688 26.4 115.748 26.4C116.708 26.4 117.448 26.28 118.208 26V29H120.968ZM129.842 16.56V19.36C131.282 18.26 132.882 17.74 134.242 17.74C135.622 17.74 136.502 18.26 136.502 19.26C136.502 20.56 135.282 21.1 133.862 21.92C131.862 23.1 129.382 24.38 129.382 27.66V29H139.582V26.42L132.782 26.44C132.802 25.56 134.182 24.82 135.802 23.86C137.582 22.8 139.482 21.44 139.482 19.14C139.482 16.36 137.262 15.12 134.522 15.12C132.862 15.12 131.242 15.56 129.842 16.56ZM142.356 22.2C142.356 26.12 144.216 29.28 148.556 29.28C152.896 29.28 154.756 26.12 154.756 22.2C154.756 18.28 152.896 15.12 148.556 15.12C144.216 15.12 142.356 18.28 142.356 22.2ZM151.756 22.2C151.756 25.1 150.756 26.64 148.556 26.64C146.356 26.64 145.356 25.1 145.356 22.2C145.356 19.3 146.356 17.76 148.556 17.76C150.756 17.76 151.756 19.3 151.756 22.2ZM165.931 29V23.34L168.191 26.92H169.571L171.831 23.34V29H174.511V19.4H171.871L168.871 24.16L165.891 19.4H163.231V29H165.931ZM180.284 29L184.564 23.6V29H187.324V19.4H184.924L180.644 24.8V19.4H177.864V29H180.284ZM193.46 29V25.36H197.34V29H200.12V19.4H197.34V23.04H193.46V19.4H190.68V29H193.46Z" fill="white"/>
<path d="M31.1877 6.5708C29.0514 6.5708 27.3149 8.31695 27.3149 10.4652C27.3149 12.6134 29.0628 14.3595 31.1877 14.3595C33.3125 14.3595 35.0604 12.6134 35.0604 10.4652C35.0604 8.31695 33.324 6.5708 31.1877 6.5708ZM31.1877 13.1418C29.7254 13.1418 28.5259 11.9356 28.5259 10.4652C28.5259 8.99473 29.7254 7.78851 31.1877 7.78851C32.6499 7.78851 33.8495 8.99473 33.8495 10.4652C33.8495 11.9356 32.6614 13.1418 31.1877 13.1418Z" fill="#525252"/>
<path d="M60.5928 0C54.858 0 50.1855 4.69851 50.1855 10.4654C50.1855 14.9342 56.4459 23.1479 60.1358 27.295C60.2501 27.4214 60.41 27.5018 60.5814 27.5018C60.7527 27.5018 60.9126 27.4214 61.0383 27.295C64.7283 23.1479 70.9886 14.9342 70.9886 10.4654C71 4.69851 66.3276 0 60.5928 0ZM61.381 25.0434L60.5928 25.9854L59.8045 25.0434C58.3994 23.3662 51.3965 14.7963 51.3965 10.4539C51.3965 5.35332 55.5205 1.20622 60.5928 1.20622C65.665 1.20622 69.7891 5.35332 69.7891 10.4539C69.7891 14.7963 62.7862 23.3777 61.381 25.0434Z" fill="#525252"/>
<path d="M60.5932 6.5708C58.4569 6.5708 56.7205 8.31695 56.7205 10.4652C56.7205 12.6134 58.4569 14.3595 60.5932 14.3595C62.7295 14.3595 64.4659 12.6134 64.4659 10.4652C64.4659 8.31695 62.7295 6.5708 60.5932 6.5708ZM60.5932 13.1418C59.1309 13.1418 57.9314 11.9356 57.9314 10.4652C57.9314 8.99473 59.1309 7.78851 60.5932 7.78851C62.0555 7.78851 63.255 8.99473 63.255 10.4652C63.255 11.9356 62.0555 13.1418 60.5932 13.1418Z" fill="#525252"/>
<path d="M28.2973 22.4012C25.7383 19.0468 22.0027 13.6245 22.0027 10.4539C22.0027 5.35332 26.1267 1.20622 31.199 1.20622C36.2712 1.20622 40.3953 5.35332 40.3953 10.4539C40.3953 14.7963 33.3924 23.3662 31.9872 25.0434L31.6217 25.48L32.3528 26.4909C36.0884 22.16 41.6062 14.6584 41.6062 10.4539C41.5948 4.69851 36.9338 0 31.1876 0C25.4413 0 20.7917 4.69851 20.7917 10.4654C20.7917 13.5211 23.7049 18.3116 26.7322 22.3668L28.2973 22.4012Z" fill="#525252"/>
<path d="M60.5928 32.8438C58.9706 32.8438 57.5083 33.8891 56.9599 35.44L56.72 36.1293H37.6763V37.347H56.72L56.9599 38.0362C57.5083 39.5871 58.9706 40.6325 60.5928 40.6325C62.729 40.6325 64.4655 38.8863 64.4655 36.7381C64.4655 34.5899 62.729 32.8438 60.5928 32.8438ZM60.5928 39.4148C59.1305 39.4148 57.931 38.2086 57.931 36.7381C57.931 35.2677 59.1305 34.0615 60.5928 34.0615C62.055 34.0615 63.2545 35.2677 63.2545 36.7381C63.2545 38.2086 62.055 39.4148 60.5928 39.4148Z" fill="#525252"/>
<path d="M31.0963 32.6138C32.787 32.6138 34.3064 33.6362 34.9461 35.1985C35.5859 36.7609 35.2317 38.5645 34.0436 39.7707C32.8556 40.9654 31.062 41.3215 29.4969 40.6782C27.9432 40.0349 26.9265 38.507 26.9265 36.8068C26.9265 34.4978 28.7886 32.6138 31.0963 32.6138ZM31.0963 38.7368C31.8731 38.7368 32.57 38.2658 32.8784 37.542C33.1754 36.8183 33.0155 35.9912 32.4671 35.4398C31.9188 34.8884 31.0848 34.716 30.3766 35.0262C29.6568 35.3249 29.1885 36.0257 29.1885 36.8183C29.1656 37.8752 30.0338 38.7368 31.0963 38.7368Z" fill="white"/>
<path d="M8.00838 32.6138C9.69913 32.6138 11.2185 33.6362 11.8583 35.1985C12.498 36.7609 12.1439 38.5645 10.9558 39.7707C9.76767 40.9654 7.9741 41.3215 6.40902 40.6782C4.85536 40.0349 3.83862 38.507 3.83862 36.8068C3.85005 34.4978 5.71216 32.6138 8.00838 32.6138ZM8.00838 38.7368C8.78521 38.7368 9.48207 38.2658 9.79052 37.542C10.0875 36.8183 9.92761 35.9912 9.37925 35.4398C8.8309 34.8884 7.99695 34.716 7.28867 35.0262C6.56895 35.3249 6.10057 36.0257 6.10057 36.8183C6.08915 37.8752 6.94595 38.7368 8.00838 38.7368Z" fill="white"/>
<path d="M2.45625 29.1558L9.93895 27.7773L16.3135 22.4584C16.9418 21.9415 17.7415 21.6543 18.5526 21.6543H27.9431C29.017 21.6543 30.0337 22.1368 30.6963 22.9869L34.7632 27.7773H37.505C39.0929 27.7773 40.3838 29.0754 40.3953 30.6837V34.2334C40.3953 36.1864 38.8188 37.7717 36.8653 37.7832H36.1341C36.4197 36.2783 36.0199 34.7159 35.0488 33.5212C34.0778 32.338 32.627 31.6487 31.0962 31.6487C29.5653 31.6487 28.1145 32.338 27.1435 33.5212C26.1724 34.7044 25.7726 36.2668 26.0582 37.7832H13.0463C13.3319 36.2783 12.932 34.7159 11.961 33.5212C10.99 32.338 9.53911 31.6487 8.0083 31.6487C6.47749 31.6487 5.02664 32.338 4.0556 33.5212C3.08457 34.7044 2.68473 36.2668 2.97033 37.7832H2.87893C1.291 37.7717 9.22374e-05 36.4736 9.22374e-05 34.8768V32.0278C-0.0113317 30.5803 1.03967 29.3626 2.45625 29.1558ZM26.2867 26.8123C26.2867 27.3408 26.7208 27.7773 27.2463 27.7773H31.4731C31.8844 27.7773 32.1015 27.2948 31.8387 26.9846L29.0398 23.6876C28.8571 23.4694 28.5943 23.3545 28.3087 23.3545H27.2463C26.7208 23.3545 26.2867 23.791 26.2867 24.3195V26.8123ZM21.4772 31.327H22.7567C23.2822 31.327 23.7163 30.8905 23.7163 30.3621C23.7163 29.8336 23.2822 29.3971 22.7567 29.3971H21.4772C20.9517 29.3971 20.5176 29.8336 20.5176 30.3621C20.5176 30.8905 20.9402 31.327 21.4772 31.327ZM13.9031 27.8003L23.0765 27.7773C23.602 27.7773 24.0361 27.3408 24.0361 26.8123V24.308C24.0361 23.7795 23.602 23.343 23.0765 23.343H18.4612C18.2442 23.343 18.0385 23.4119 17.8672 23.5498L13.606 26.9387C13.2519 27.2259 13.4461 27.8003 13.9031 27.8003Z" fill="white"/>
</svg>
