<svg width="55" height="73" viewBox="0 0 55 73" fill="none" xmlns="http://www.w3.org/2000/svg">
<path d="M50.7525 51.8457C51.4655 49.5258 51.8334 47.158 51.8334 44.7799C51.8334 42.1511 51.4116 39.552 50.5798 37.0555L47.152 26.772C45.9965 23.3085 43.2251 20.7155 39.7349 19.8362C38.4752 19.5197 36.8734 19.1853 35.1041 18.8994V15.2084H36.625C38.3033 15.2084 39.6666 13.8435 39.6666 12.1668V6.08338C39.6666 2.72823 36.937 0 33.5834 0H21.4168C18.0632 0 15.3334 2.72823 15.3334 6.08338V12.1668C15.3334 13.8435 16.6969 15.2084 18.375 15.2084H19.8959V18.8994C18.1266 19.1853 16.5246 19.5197 15.2651 19.8362C11.7749 20.7155 9.00348 23.3085 7.84803 26.772L4.42017 37.0555C3.58851 39.552 3.16662 42.1512 3.16662 44.7799C3.16662 47.1581 3.53461 49.5258 4.24765 51.8457C1.89325 52.3765 0.125 54.4764 0.125 56.9882C0.125 59.415 0.588379 65.3304 1.6637 68.0083L2.33211 69.6806C3.13696 71.6975 5.06177 73 7.23309 73H47.9896C50.0005 73 51.8096 71.8832 52.7125 70.0816C54.2394 67.0221 54.875 60.6225 54.875 57.8763V56.9882C54.875 54.4764 53.1069 52.3766 50.7525 51.8457ZM18.375 12.1668V6.08338C18.375 4.40666 19.7385 3.04176 21.4166 3.04176H33.5832C35.2615 3.04176 36.6249 4.40666 36.6249 6.08338V12.1668H18.375ZM32.0625 15.2084V18.5086C30.6029 18.3609 29.0913 18.25 27.5 18.25C25.9087 18.25 24.3971 18.3608 22.9375 18.5086V15.2084H32.0625ZM7.30737 38.0179L10.7352 27.7344C11.5581 25.2586 13.5303 23.4096 16.0076 22.7858C18.7166 22.1042 22.9138 21.2918 27.5 21.2918C32.0862 21.2918 36.2834 22.1042 38.9924 22.7858C41.4697 23.4096 43.4419 25.2587 44.2648 27.7344L47.6926 38.0179C48.4233 40.204 48.7916 42.4794 48.7916 44.7799C48.7916 47.293 48.3074 49.797 47.3909 52.2388C46.3282 52.7304 45.4206 53.5298 44.8707 54.6268L43.4716 57.4235C43.0299 57.2743 42.4533 57.0951 41.8207 56.9072L43.8162 52.9798C45.0816 50.446 45.75 47.6108 45.75 44.7801C45.75 42.8062 45.4322 40.8548 44.8084 38.9789L41.3806 28.6984C40.8934 27.234 39.6963 26.0994 38.2498 25.7355C35.7042 25.0953 31.7714 24.3335 27.5 24.3335C23.2315 24.3335 19.2958 25.0955 16.7472 25.7355C15.3036 26.0994 14.1065 27.2326 13.6193 28.6926L10.1914 38.979C9.56766 40.8548 9.24986 42.8064 9.24986 44.7802C9.24986 47.611 9.91826 50.4477 11.1925 52.9963L13.1792 56.9072C12.5464 57.0951 11.9698 57.2745 11.5283 57.4236L10.1291 54.6255C9.57921 53.5292 8.67156 52.7302 7.60878 52.2388C6.69229 49.7967 6.20824 47.293 6.20824 44.7801C6.20838 42.4794 6.57666 40.204 7.30737 38.0179ZM41.1014 51.6119L38.8147 56.1135C35.7731 55.4027 31.8233 54.75 27.5 54.75C23.1767 54.75 19.2269 55.4027 16.1854 56.1135L13.9075 51.6283C12.85 49.5088 12.2916 47.1415 12.2916 44.7801C12.2916 43.1344 12.556 41.5068 13.0788 39.9413L16.5067 29.6534C16.6641 29.1766 17.0503 28.7949 17.4899 28.685C19.8721 28.0879 23.5405 27.375 27.5 27.375C31.4625 27.375 35.1279 28.0879 37.5073 28.685C37.9468 28.7964 38.3359 29.1766 38.4935 29.6578L41.9213 39.9413C42.4442 41.5066 42.7085 43.1344 42.7085 44.7801C42.7084 47.1413 42.1499 49.5073 41.1014 51.6119ZM51.8334 57.8763C51.8334 60.8645 51.1323 66.437 49.9917 68.7197C49.6084 69.483 48.8421 69.9584 47.9896 69.9584H7.23309C6.31232 69.9584 5.49535 69.4059 5.15387 68.5518L4.48547 66.878C3.68047 64.8685 3.16662 59.6778 3.16662 56.988C3.16662 55.7539 4.17065 54.7499 5.40624 54.7499C6.25871 54.7499 7.02507 55.2251 7.40832 55.987L9.4104 59.9926C9.76385 60.6995 10.6075 61.0203 11.3352 60.7247C11.4095 60.6951 18.7701 57.7915 27.5 57.7915C36.2033 57.7915 43.5905 60.6951 43.6648 60.7247C44.3895 61.0113 45.2361 60.7009 45.5896 59.9926L47.5917 55.9886C47.9749 55.2252 48.7413 54.7499 49.5938 54.7499C50.8295 54.7499 51.8334 55.7539 51.8334 56.988V57.8763Z" fill="white"/>
</svg>
